<svg viewBox="0 0 530 105" xmlns="http://www.w3.org/2000/svg" xmlns:xlink="http://www.w3.org/1999/xlink"><linearGradient id="a" gradientUnits="userSpaceOnUse" x1="220" x2="60" y1="152" y2="-6"><stop offset=".3" stop-color="#f49f0a"/><stop offset=".79" stop-color="#fb7a4d"/><stop offset="1" stop-color="#ff6b6c"/></linearGradient><linearGradient id="b" gradientUnits="userSpaceOnUse" x1="297" x2="520" y1="20" y2="95"><stop offset=".15" stop-color="#00a6a6"/><stop offset="1" stop-color="#1238dd"/></linearGradient><path d="m205.52 48.44h-8.86c-.44-3.75-2.23-6.65-5.38-8.72-3.16-2.07-7.03-3.1-11.6-3.1-3.35 0-6.27.54-8.78 1.62-2.49 1.09-4.44 2.59-5.84 4.48-1.39 1.89-2.08 4.05-2.08 6.46 0 2.01.49 3.75 1.46 5.2.97 1.44 2.22 2.63 3.74 3.58 1.53.95 3.13 1.72 4.8 2.32 1.68.6 3.22 1.09 4.62 1.46l7.68 2.06c1.97.52 4.17 1.23 6.6 2.14 2.43.92 4.75 2.16 6.98 3.72s4.07 3.56 5.52 6 2.18 5.43 2.18 8.98c0 4.08-1.07 7.77-3.2 11.08-2.12 3.29-5.22 5.91-9.3 7.86s-9.02 2.92-14.82 2.92c-5.43 0-10.11-.87-14.06-2.62s-7.05-4.19-9.3-7.32c-2.25-3.12-3.53-6.75-3.84-10.88h9.46c.25 2.85 1.22 5.21 2.9 7.06 1.69 1.87 3.83 3.25 6.42 4.14 2.6.89 5.41 1.34 8.42 1.34 3.49 0 6.63-.57 9.4-1.72 2.79-1.13 4.99-2.73 6.62-4.8 1.63-2.05 2.44-4.46 2.44-7.22 0-2.51-.7-4.55-2.1-6.12-1.41-1.57-3.26-2.85-5.54-3.84-2.29-.99-4.77-1.85-7.44-2.58l-9.3-2.66c-5.91-1.71-10.59-4.13-14.04-7.28-3.44-3.16-5.16-7.29-5.16-12.38 0-4.23 1.15-7.93 3.46-11.1 2.29-3.16 5.39-5.62 9.3-7.38s8.27-2.64 13.08-2.64c4.88 0 9.21.87 13 2.6 3.8 1.73 6.81 4.11 9.04 7.12 2.23 3 3.4 6.41 3.52 10.22zm23.64 56.74h-8.72v-56.74h8.42v8.86h.74c1.19-3.03 3.1-5.38 5.74-7.06 2.63-1.69 5.79-2.54 9.48-2.54 3.75 0 6.87.85 9.36 2.54 2.51 1.68 4.46 4.03 5.86 7.06h.58c1.45-2.92 3.63-5.25 6.54-7 2.91-1.73 6.39-2.6 10.46-2.6 5.07 0 9.21 1.58 12.44 4.74 3.23 3.17 4.84 8.09 4.84 14.76v37.98h-8.72v-37.98c0-4.19-1.14-7.18-3.42-8.98-2.29-1.79-4.99-2.68-8.1-2.68-3.99 0-7.07 1.2-9.26 3.6-2.2 2.4-3.3 5.43-3.3 9.1v36.94h-8.86v-38.86c0-3.23-1.05-5.83-3.14-7.82-2.09-1.97-4.79-2.96-8.08-2.96-2.27 0-4.38.6-6.34 1.8-1.96 1.21-3.53 2.88-4.72 5-1.2 2.13-1.8 4.59-1.8 7.38zm104.74 1.18c-5.12 0-9.61-1.22-13.46-3.66s-6.86-5.85-9.02-10.24c-2.15-4.37-3.22-9.49-3.22-15.36 0-5.91 1.07-11.07 3.22-15.48 2.16-4.4 5.17-7.82 9.02-10.26s8.34-3.66 13.46-3.66 9.61 1.22 13.46 3.66 6.86 5.86 9.02 10.26c2.15 4.41 3.22 9.57 3.22 15.48 0 5.87-1.07 10.99-3.22 15.36-2.16 4.39-5.17 7.8-9.02 10.24s-8.34 3.66-13.46 3.66zm0-7.84c3.89 0 7.09-.99 9.6-2.98 2.52-2 4.38-4.63 5.58-7.88 1.21-3.25 1.82-6.77 1.82-10.56s-.61-7.32-1.82-10.6c-1.2-3.27-3.06-5.91-5.58-7.94-2.51-2.01-5.71-3.02-9.6-3.02s-7.09 1.01-9.6 3.02c-2.51 2.03-4.37 4.67-5.58 7.94-1.2 3.28-1.8 6.81-1.8 10.6s.6 7.31 1.8 10.56c1.21 3.25 3.07 5.88 5.58 7.88 2.51 1.99 5.71 2.98 9.6 2.98zm62.04 7.84c-5.12 0-9.61-1.22-13.46-3.66s-6.85-5.85-9-10.24c-2.16-4.37-3.24-9.49-3.24-15.36 0-5.91 1.08-11.07 3.24-15.48 2.15-4.4 5.15-7.82 9-10.26s8.34-3.66 13.46-3.66 9.61 1.22 13.46 3.66 6.86 5.86 9.02 10.26c2.16 4.41 3.24 9.57 3.24 15.48 0 5.87-1.08 10.99-3.24 15.36-2.16 4.39-5.17 7.8-9.02 10.24s-8.34 3.66-13.46 3.66zm0-7.84c3.89 0 7.09-.99 9.6-2.98 2.52-2 4.38-4.63 5.58-7.88 1.21-3.25 1.82-6.77 1.82-10.56s-.61-7.32-1.82-10.6c-1.2-3.27-3.06-5.91-5.58-7.94-2.51-2.01-5.71-3.02-9.6-3.02-3.88 0-7.08 1.01-9.6 3.02-2.51 2.03-4.37 4.67-5.58 7.94-1.2 3.28-1.8 6.81-1.8 10.6s.6 7.31 1.8 10.56c1.21 3.25 3.07 5.88 5.58 7.88 2.52 1.99 5.72 2.98 9.6 2.98z" fill="url(#a)" transform="translate(-141 -14)"/><text fill="url(#b)" font-family="'Plus Jakarta Sans','Inter','Helvetica Neue',system-ui,sans-serif" font-size="100" font-weight="900" letter-spacing="6" x="297" y="91">blue</text></svg>